<mxfile host="app.diagrams.net" modified="2020-08-13T07:55:34.130Z" agent="5.0 (Macintosh; Intel Mac OS X 10_15_5) AppleWebKit/537.36 (KHTML, like Gecko) Chrome/84.0.4147.125 Safari/537.36" etag="GBysTQ-cfiMJrvz9wDei" version="13.4.9" type="github">
  <diagram id="a1V-n9uHEH21JOAclf3-" name="Page-1">
    <mxGraphModel dx="1426" dy="692" grid="1" gridSize="10" guides="1" tooltips="1" connect="1" arrows="1" fold="1" page="1" pageScale="1" pageWidth="827" pageHeight="1169" math="0" shadow="0">
      <root>
        <mxCell id="0" />
        <mxCell id="1" parent="0" />
        <mxCell id="xYlLMD9q5TRtt5DQgdJM-1" value="元数据模型定义 G(V, E)" style="text;html=1;align=center;verticalAlign=middle;resizable=0;points=[];autosize=1;" vertex="1" parent="1">
          <mxGeometry x="300" y="450" width="140" height="20" as="geometry" />
        </mxCell>
        <mxCell id="xYlLMD9q5TRtt5DQgdJM-2" value="数据获取" style="text;html=1;align=center;verticalAlign=middle;resizable=0;points=[];autosize=1;" vertex="1" parent="1">
          <mxGeometry x="80" y="400" width="60" height="20" as="geometry" />
        </mxCell>
        <mxCell id="xYlLMD9q5TRtt5DQgdJM-3" value="拓扑组装" style="text;html=1;align=center;verticalAlign=middle;resizable=0;points=[];autosize=1;" vertex="1" parent="1">
          <mxGeometry x="340" y="390" width="60" height="20" as="geometry" />
        </mxCell>
        <mxCell id="xYlLMD9q5TRtt5DQgdJM-4" value="数据服务" style="text;html=1;align=center;verticalAlign=middle;resizable=0;points=[];autosize=1;" vertex="1" parent="1">
          <mxGeometry x="590" y="390" width="60" height="20" as="geometry" />
        </mxCell>
        <mxCell id="xYlLMD9q5TRtt5DQgdJM-5" value="源端同步" style="text;html=1;align=center;verticalAlign=middle;resizable=0;points=[];autosize=1;" vertex="1" parent="1">
          <mxGeometry y="300" width="60" height="20" as="geometry" />
        </mxCell>
        <mxCell id="xYlLMD9q5TRtt5DQgdJM-6" value="数据清洗" style="text;html=1;align=center;verticalAlign=middle;resizable=0;points=[];autosize=1;" vertex="1" parent="1">
          <mxGeometry x="110" y="300" width="60" height="20" as="geometry" />
        </mxCell>
        <mxCell id="xYlLMD9q5TRtt5DQgdJM-7" value="组装规则" style="text;html=1;align=center;verticalAlign=middle;resizable=0;points=[];autosize=1;" vertex="1" parent="1">
          <mxGeometry x="340" y="310" width="60" height="20" as="geometry" />
        </mxCell>
        <mxCell id="xYlLMD9q5TRtt5DQgdJM-8" value="元数据同步服务" style="text;html=1;align=center;verticalAlign=middle;resizable=0;points=[];autosize=1;" vertex="1" parent="1">
          <mxGeometry x="530" y="310" width="100" height="20" as="geometry" />
        </mxCell>
        <mxCell id="xYlLMD9q5TRtt5DQgdJM-9" value="影响面服务" style="text;html=1;align=center;verticalAlign=middle;resizable=0;points=[];autosize=1;" vertex="1" parent="1">
          <mxGeometry x="747" y="310" width="80" height="20" as="geometry" />
        </mxCell>
        <mxCell id="xYlLMD9q5TRtt5DQgdJM-10" value="服务稳定性" style="text;html=1;align=center;verticalAlign=middle;resizable=0;points=[];autosize=1;" vertex="1" parent="1">
          <mxGeometry x="827" y="310" width="80" height="20" as="geometry" />
        </mxCell>
        <mxCell id="xYlLMD9q5TRtt5DQgdJM-11" value="数据质量" style="text;html=1;align=center;verticalAlign=middle;resizable=0;points=[];autosize=1;" vertex="1" parent="1">
          <mxGeometry x="200" y="300" width="60" height="20" as="geometry" />
        </mxCell>
        <mxCell id="xYlLMD9q5TRtt5DQgdJM-12" value="增量同步" style="text;html=1;align=center;verticalAlign=middle;resizable=0;points=[];autosize=1;" vertex="1" parent="1">
          <mxGeometry x="10" y="220" width="60" height="20" as="geometry" />
        </mxCell>
        <mxCell id="xYlLMD9q5TRtt5DQgdJM-13" value="全量同步" style="text;html=1;align=center;verticalAlign=middle;resizable=0;points=[];autosize=1;" vertex="1" parent="1">
          <mxGeometry x="10" y="190" width="60" height="20" as="geometry" />
        </mxCell>
        <mxCell id="xYlLMD9q5TRtt5DQgdJM-14" value="数据比对" style="text;html=1;align=center;verticalAlign=middle;resizable=0;points=[];autosize=1;" vertex="1" parent="1">
          <mxGeometry x="190" y="190" width="60" height="20" as="geometry" />
        </mxCell>
        <mxCell id="xYlLMD9q5TRtt5DQgdJM-15" value="金丝雀发布" style="text;html=1;align=center;verticalAlign=middle;resizable=0;points=[];autosize=1;" vertex="1" parent="1">
          <mxGeometry x="180" y="220" width="80" height="20" as="geometry" />
        </mxCell>
        <mxCell id="xYlLMD9q5TRtt5DQgdJM-16" value="配置定义" style="text;html=1;align=center;verticalAlign=middle;resizable=0;points=[];autosize=1;" vertex="1" parent="1">
          <mxGeometry x="310" y="220" width="60" height="20" as="geometry" />
        </mxCell>
        <mxCell id="xYlLMD9q5TRtt5DQgdJM-17" value="代码配置化" style="text;html=1;align=center;verticalAlign=middle;resizable=0;points=[];autosize=1;" vertex="1" parent="1">
          <mxGeometry x="380" y="220" width="80" height="20" as="geometry" />
        </mxCell>
        <mxCell id="xYlLMD9q5TRtt5DQgdJM-18" value="计算平台" style="text;html=1;align=center;verticalAlign=middle;resizable=0;points=[];autosize=1;" vertex="1" parent="1">
          <mxGeometry x="90" y="70" width="60" height="20" as="geometry" />
        </mxCell>
        <mxCell id="xYlLMD9q5TRtt5DQgdJM-19" value="存储引擎" style="text;html=1;align=center;verticalAlign=middle;resizable=0;points=[];autosize=1;" vertex="1" parent="1">
          <mxGeometry x="90" y="110" width="60" height="20" as="geometry" />
        </mxCell>
        <mxCell id="xYlLMD9q5TRtt5DQgdJM-20" value="" style="endArrow=none;dashed=1;html=1;dashPattern=1 3;strokeWidth=2;" edge="1" parent="1">
          <mxGeometry width="50" height="50" relative="1" as="geometry">
            <mxPoint x="34" y="480" as="sourcePoint" />
            <mxPoint x="794" y="480" as="targetPoint" />
          </mxGeometry>
        </mxCell>
        <mxCell id="xYlLMD9q5TRtt5DQgdJM-21" value="Text" style="text;html=1;align=center;verticalAlign=middle;resizable=0;points=[];autosize=1;" vertex="1" parent="1">
          <mxGeometry x="30" y="500" width="40" height="20" as="geometry" />
        </mxCell>
        <mxCell id="xYlLMD9q5TRtt5DQgdJM-22" value="元数据计算服务" style="text;html=1;align=center;verticalAlign=middle;resizable=0;points=[];autosize=1;" vertex="1" parent="1">
          <mxGeometry x="640" y="310" width="100" height="20" as="geometry" />
        </mxCell>
      </root>
    </mxGraphModel>
  </diagram>
</mxfile>
